<svg id="Layer_1" data-name="Layer 1" xmlns="http://www.w3.org/2000/svg" viewBox="0 0 595.28 595.28"><defs><style>.cls-1{fill:#42999b;}.cls-2{fill:none;stroke:#fff;stroke-linecap:round;stroke-linejoin:round;stroke-width:8px;}</style></defs><circle class="cls-1" cx="305.1" cy="311.32" r="224.43"/><path class="cls-2" d="M347.54,137.55C318,122,281.25,123.74,253.28,145c-38.73,29.4-45.92,85.11-16.07,124.43s85.44,47.36,124.17,18c28-21.23,39.49-56.19,32.49-88.79"/><polyline class="cls-2" points="358.87 216.54 386.63 176.77 409.32 185.33 432.01 193.89"/><path class="cls-2" d="M428.3,475.44V433.76c0-52.18-37.85-96.06-89.17-108.76h0s12.55,88.72-30.9,88.63C265.84,413.54,275,325,275,325h0c-51.32,12.7-89.16,56.58-89.16,108.76v41.68"/></svg>