<svg id="Layer_1" data-name="Layer 1" xmlns="http://www.w3.org/2000/svg" viewBox="0 0 595.28 595.28"><defs><style>.cls-1{fill:#42999b;}</style></defs><circle class="cls-1" cx="280.74" cy="183.52" r="16.07"/><circle class="cls-1" cx="368.16" cy="107.91" r="16.07"/><circle class="cls-1" cx="280.74" cy="107.91" r="16.07"/><circle class="cls-1" cx="199.5" cy="176.44" r="34.14"/><path class="cls-1" d="M521.38,70.64H73.89a58.78,58.78,0,0,0-58.78,58.78V289A58.54,58.54,0,0,0,26.7,324c.88-33.84,25.44-63.24,60.36-71.89a2,2,0,0,1,1.79.43,2,2,0,0,1,.68,1.72c0,.37-3.72,37.44,8.76,51.31a14.35,14.35,0,0,0,11.17,5h.05a14.28,14.28,0,0,0,11.35-5.1c12.12-13.92,7.08-50.79,7-51.16a2,2,0,0,1,.64-1.76,2,2,0,0,1,1.82-.46,82.47,82.47,0,0,1,32.49,16.2,38.14,38.14,0,1,1,74.8-10.51v2l-40.31-.6.06-4,36.19.54A34.14,34.14,0,1,0,170,274.89l.23.23-.06.06a34.14,34.14,0,0,0,59.26-.84l3.49,1.94a38.14,38.14,0,0,1-66.13,1.05,77.56,77.56,0,0,0-34.54-20.57c1,9.42,3,38.37-8.32,51.36a18.3,18.3,0,0,1-14.38,6.48h0a18.36,18.36,0,0,1-14.14-6.35c-11.65-12.95-10.66-42.19-10-51.52C53,265.92,30.66,294,30.66,325.89v2.89a58.63,58.63,0,0,0,43.23,19H521.38A58.79,58.79,0,0,0,580.17,289V129.42A58.79,58.79,0,0,0,521.38,70.64ZM368.16,87.84a20.08,20.08,0,1,1-20.07,20.07A20.1,20.1,0,0,1,368.16,87.84Zm-87.42,0a20.08,20.08,0,1,1-20.07,20.07A20.1,20.1,0,0,1,280.74,87.84Zm-38.15,88.6a38.15,38.15,0,0,1,76.29,0v36.15h-4V176.44a34.15,34.15,0,0,0-68.29,0v36.15h-4Zm58.22,7.08a20.07,20.07,0,1,1-20.07-20.07A20.1,20.1,0,0,1,300.81,183.52ZM106.19,247c-38.55,0-69.91-31.83-69.91-70.95s31.36-71,69.91-71a70.21,70.21,0,0,1,63.19,40.56l-3.62,1.69a66.2,66.2,0,0,0-59.57-38.25c-36.34,0-65.91,30-65.91,67S69.85,243,106.19,243a66.18,66.18,0,0,0,59.57-38.25l3.62,1.7A70.22,70.22,0,0,1,106.19,247Zm93.31-32.41a38.15,38.15,0,1,1,38.14-38.15A38.19,38.19,0,0,1,199.5,214.59ZM318.88,294h-4V257.81a34.15,34.15,0,0,0-68.29,0V294h-4V257.81a38.15,38.15,0,0,1,76.29,0Zm50.59,2a38.18,38.18,0,0,1-38.14-38.14V225.76L316.49,237.3,314,234.14l19.3-15,19.3,15-2.46,3.16-14.84-11.54v32.05A34.18,34.18,0,0,0,369.47,292Zm36.84-83.36h-4V176.44a34.15,34.15,0,0,0-68.29,0v36.15h-4V176.44a38.15,38.15,0,0,1,76.29,0ZM487.1,188l-40.31-.59.06-4L483,184a34.12,34.12,0,1,0-4.2,18.57l3.5,1.94A38.16,38.16,0,1,1,487.1,186Zm44.49,32.12c13.83,0,26.6-7.67,32.52-19.55l3.58,1.79c-6.6,13.22-20.77,21.76-36.1,21.76-22,0-40-17.11-40-38.15s17.93-38.14,40-38.14c15.33,0,29.5,8.54,36.1,21.76l-3.58,1.79c-5.92-11.88-18.69-19.55-32.52-19.55-19.84,0-36,15.32-36,34.14S511.75,220.15,531.59,220.15Z"/></svg>