<svg xmlns="http://www.w3.org/2000/svg" viewBox="0 0 443.5 443.5"><defs><style>.cls-1{fill:#42999b;}.cls-2{fill:none;stroke:#fff;stroke-linecap:round;stroke-linejoin:round;stroke-width:8px;}</style></defs><g id="Layer_2" data-name="Layer 2"><g id="Layer_1-2" data-name="Layer 1"><rect class="cls-1" width="443.5" height="443.5"/><path class="cls-2" d="M260.36,58c-29.51-15.51-66.29-13.81-94.26,7.43-38.73,29.4-45.92,85.11-16.08,124.43s85.44,47.36,124.17,18c28-21.23,39.49-56.2,32.49-88.79"/><polyline class="cls-2" points="271.69 136.93 299.44 97.16 322.13 105.72 344.82 114.28"/><path class="cls-2" d="M341.1,395.83V354.15c0-52.17-37.84-96-89.17-108.76h0S264.48,334.12,221,334c-42.39-.09-33.19-88.64-33.19-88.64h0C136.52,258.1,98.67,302,98.67,354.15v41.68"/></g></g></svg>